<?xml version="1.0" encoding="UTF-8" standalone="no"?>
<svg
   data-name="Medium Glass"
   height="63.998"
   id="Medium_Glass"
   viewBox="0 0 64 63.998"
   width="64"
   version="1.1"
   sodipodi:docname="copo.svg"
   inkscape:version="1.3.2 (091e20e, 2023-11-25, custom)"
   xmlns:inkscape="http://www.inkscape.org/namespaces/inkscape"
   xmlns:sodipodi="http://sodipodi.sourceforge.net/DTD/sodipodi-0.dtd"
   xmlns="http://www.w3.org/2000/svg"
   xmlns:svg="http://www.w3.org/2000/svg">
  <defs
     id="defs1" />
  <sodipodi:namedview
     id="namedview1"
     pagecolor="#505050"
     bordercolor="#eeeeee"
     borderopacity="1"
     inkscape:showpageshadow="0"
     inkscape:pageopacity="0"
     inkscape:pagecheckerboard="0"
     inkscape:deskcolor="#d1d1d1"
     inkscape:zoom="8.6408949"
     inkscape:cx="32.056865"
     inkscape:cy="31.999001"
     inkscape:window-width="1366"
     inkscape:window-height="745"
     inkscape:window-x="1358"
     inkscape:window-y="-8"
     inkscape:window-maximized="1"
     inkscape:current-layer="Medium_Glass" />
  <rect
     fill="none"
     height="63.998"
     id="rect2317-3"
     transform="translate(0 0)"
     width="64" />
  <g
     id="g2080"
     transform="translate(10.374 3.828)"
     style="fill:#ffffff;fill-opacity:1">
    <path
       d="M1.66,1.657,6.351,54.405H35.668L40.359,1.657H1.66M1.66-.6h38.7a2.254,2.254,0,0,1,2.248,2.452L37.916,54.6a2.255,2.255,0,0,1-2.248,2.054H6.351A2.255,2.255,0,0,1,4.1,54.6L-.587,1.856A2.254,2.254,0,0,1,1.66-.6Z"
       id="path2082"
       transform="translate(0.596 0.596)"
       style="fill:#ffffff;fill-opacity:1" />
  </g>
  <g
     id="g2084"
     transform="translate(17.014 26.514)"
     style="fill:#3584e4;fill-opacity:1">
    <path
       d="M.259,4.024S3.932,1.573,10,2.723,16.114,5,21.689,5.635,30.5,4.023,30.5,4.023L28.012,32.538H2.55Z"
       id="path2086"
       transform="translate(-0.259 -2.416)"
       style="fill:#3584e4;fill-opacity:1" />
  </g>
</svg>
